<?xml version="1.0" encoding="UTF-8" standalone="no"?>
<!-- Generator: Adobe Illustrator 23.1.0, SVG Export Plug-In . SVG Version: 6.00 Build 0)  -->

<svg
   xmlns:dc="http://purl.org/dc/elements/1.1/"
   xmlns:cc="http://creativecommons.org/ns#"
   xmlns:rdf="http://www.w3.org/1999/02/22-rdf-syntax-ns#"
   xmlns:svg="http://www.w3.org/2000/svg"
   xmlns="http://www.w3.org/2000/svg"
   xmlns:sodipodi="http://sodipodi.sourceforge.net/DTD/sodipodi-0.dtd"
   xmlns:inkscape="http://www.inkscape.org/namespaces/inkscape"
   version="1.1"
   id="Layer_1"
   x="0px"
   y="0px"
   viewBox="0 0 104.16277 18.415014"
   xml:space="preserve"
   sodipodi:docname="cod day.svg"
   width="104.16277"
   height="18.415014"
   inkscape:export-filename="/home/lola/Documents/CodeDay/cod/cod day.png"
   inkscape:export-xdpi="943.75366"
   inkscape:export-ydpi="943.75366"
   inkscape:version="0.92.4 (5da689c313, 2019-01-14)"><metadata
   id="metadata933"><rdf:RDF><cc:Work
       rdf:about=""><dc:format>image/svg+xml</dc:format><dc:type
         rdf:resource="http://purl.org/dc/dcmitype/StillImage" /></cc:Work></rdf:RDF></metadata><defs
   id="defs931" /><sodipodi:namedview
   pagecolor="#ffffff"
   bordercolor="#666666"
   borderopacity="1"
   objecttolerance="10"
   gridtolerance="10"
   guidetolerance="10"
   inkscape:pageopacity="0"
   inkscape:pageshadow="2"
   inkscape:window-width="1366"
   inkscape:window-height="731"
   id="namedview929"
   showgrid="false"
   inkscape:zoom="5.2955814"
   inkscape:cx="39.551978"
   inkscape:cy="12.281702"
   inkscape:window-x="0"
   inkscape:window-y="18"
   inkscape:window-maximized="0"
   inkscape:current-layer="Layer_1" />
<g
   id="g926"
   transform="translate(-1.137229,-1.5849857)">
	<path
   d="m 27.9,9.5 c 0,-4.1 3.1,-6.9 7.1,-6.9 2.9,0 4.6,1.6 5.6,3.3 L 38.1,7 C 37.5,5.9 36.3,5.1 35,5.1 c -2.4,0 -4.2,1.9 -4.2,4.4 0,2.5 1.8,4.4 4.2,4.4 1.4,0 2.6,-0.8 3.1,-1.9 l 2.4,1.2 c -1,1.7 -2.6,3.3 -5.6,3.3 -3.9,-0.2 -7,-3 -7,-7 z"
   id="path902"
   inkscape:connector-curvature="0"
   style="fill:#252222" />
	<path
   d="m 40.9,11.3 c 0,-2.7 1.9,-5 5.1,-5 3.2,0 5.1,2.3 5.1,5 0,2.8 -1.9,5.1 -5.1,5.1 -3.2,-0.1 -5.1,-2.4 -5.1,-5.1 z m 7.5,0 c 0,-1.5 -0.9,-2.8 -2.5,-2.8 -1.6,0 -2.5,1.3 -2.5,2.8 0,1.5 0.9,2.8 2.5,2.8 1.6,0 2.5,-1.3 2.5,-2.8 z"
   id="path904"
   inkscape:connector-curvature="0"
   style="fill:#252222" />
	<path
   d="m 58.9,16.1 v -1.2 c -0.8,1 -1.8,1.5 -3,1.5 -2.4,0 -4.3,-1.8 -4.3,-5 0,-3.2 1.8,-5.1 4.3,-5.1 1.1,0 2.2,0.5 3,1.5 v -5 h 2.6 v 13.3 z m 0,-3.1 V 9.6 C 58.5,9 57.6,8.5 56.7,8.5 c -1.4,0 -2.4,1.1 -2.4,2.8 0,1.7 1,2.8 2.4,2.8 0.8,0 1.8,-0.5 2.2,-1.1 z"
   id="path906"
   inkscape:connector-curvature="0"
   style="fill:#252222" />
	
	<path
   d="M 73.1,16.1 V 2.8 h 5.2 c 4.2,0 7.1,2.7 7.1,6.7 0,4 -2.9,6.6 -7.1,6.6 z M 82.6,9.5 C 82.6,7.1 81.2,5.3 78.4,5.3 H 76 v 8.3 h 2.4 c 2.6,0 4.2,-1.9 4.2,-4.1 z"
   id="path910"
   inkscape:connector-curvature="0"
   style="fill:#252222" />
	<path
   d="m 92.3,16.1 v -1 c -0.7,0.8 -1.8,1.2 -3.1,1.2 -1.5,0 -3.4,-1 -3.4,-3.2 0,-2.3 1.8,-3.1 3.4,-3.1 1.3,0 2.4,0.4 3.1,1.2 V 9.9 c 0,-1 -0.8,-1.6 -2.1,-1.6 -1,0 -2,0.4 -2.8,1.1 l -1,-1.7 c 1.2,-1 2.7,-1.5 4.2,-1.5 2.2,0 4.2,0.9 4.2,3.6 V 16 h -2.5 z m 0,-2.3 v -1.2 c -0.4,-0.6 -1.2,-0.8 -2,-0.8 -1,0 -1.8,0.5 -1.8,1.5 0,0.9 0.8,1.4 1.8,1.4 0.8,-0.1 1.6,-0.4 2,-0.9 z"
   id="path912"
   inkscape:connector-curvature="0"
   style="fill:#252222" />
	<path
   d="m 96.3,17.6 c 0.2,0.1 0.6,0.2 0.8,0.2 0.7,0 1.1,-0.2 1.3,-0.7 l 0.4,-0.8 -3.9,-9.8 h 2.7 l 2.5,6.7 2.5,-6.7 h 2.7 l -4.5,11.2 c -0.7,1.8 -2,2.3 -3.6,2.3 -0.3,0 -0.9,-0.1 -1.3,-0.1 z"
   id="path914"
   inkscape:connector-curvature="0"
   style="fill:#252222" />
	
	<path
   d="m 10.074685,14.660073 1.04525,1.045249 c 0,0 0.0871,0.0871 0.0871,0.0871 0.17421,0.0871 0.261314,0 0.348418,-0.0871 0.522624,-0.609728 1.306562,-1.48077 1.306562,-1.48077 0,0 2.177604,-2.526021 3.745478,-3.571271 l 0.871042,-0.60973 c 0.0871,-0.087101 0.174208,-0.1742076 0.174208,-0.2613116 0,-0.087101 -0.0871,-0.2613131 -0.174208,-0.2613131 L 16.607497,8.911197 C 15.039622,7.8659477 12.774914,5.2528233 12.774914,5.2528233 c 0,0 -0.696833,-0.7839374 -1.219458,-1.306562 -0.174208,-0.1742083 -0.348417,-0.1742083 -0.522625,0 0,0 0,0 0,0 l -0.958146,1.1323536 c -0.087101,0.1742084 -0.087101,0.3484166 0,0.4355208 l 3.919687,4.0067906 c 0.0871,0.1742091 0.0871,0.3484171 0,0.5226247 l -3.919687,4.181001 c -0.1742078,0.0871 -0.1742078,0.348417 0,0.435521 z"
   id="path918"
   inkscape:connector-curvature="0"
   style="fill:#ff686b;stroke-width:0.87104148" />
	<path
   d="m 1.1900619,14.050343 c 0.2613125,2.438916 2.2647079,4.268104 4.703624,4.355208 1.7420831,0.0871 3.0486453,-0.435521 4.1809991,-1.219458 0,0 0,0 0.0871,-0.0871 0,0 0,-0.0871 0,-0.174208 0,0 0,-0.0871 0,-0.0871 L 8.8552237,15.444016 c -0.1742082,0 -0.2613124,0 -0.3484165,0.0871 -0.6968332,0.435521 -1.5678748,0.696833 -2.351812,0.696833 -1.5678748,0 -2.8744371,-1.306562 -2.8744371,-2.874437 0,-0.609729 0.1742084,-1.219458 0.522625,-1.654979 0.1742083,-0.174208 0.4355208,-0.609729 0.6968332,-0.871042 0.087104,0 0.087104,-0.174208 0,-0.174208 0,0 -0.087104,0 -0.087104,0 H 2.0611034 c 0,0 -0.087104,0 -0.087104,0 -0.2613125,0.174208 -1.04524973,1.04525 -0.7839373,3.397063 z"
   id="path920"
   inkscape:connector-curvature="0"
   style="fill:#ff686b;stroke-width:0.87104148" />
	<path
   d="M 1.1900619,5.9496564 C 1.4513744,3.5107406 3.4547698,1.6815535 5.8936859,1.5944493 7.635769,1.5073452 8.9423312,2.02997 10.074685,2.8139074 c 0.0871,0 0.0871,0.087104 0.0871,0.1742083 0,0 0,0.087104 0,0.087104 L 8.855227,4.4688859 c -0.087104,0.087104 -0.1742083,0.087104 -0.1742083,0 C 7.9841856,4.0333654 7.1131441,3.772053 6.2421026,3.772053 c -1.5678747,0 -2.8744371,1.3065619 -2.8744371,2.8744367 0,0.609729 0.1742084,1.219458 0.522625,1.6549792 0.1742083,0.174208 0.4355208,0.6097281 0.6968332,0.8710413 0,0 0,0.087101 -0.087104,0.174208 0,0 0,0 0,0 0,0 -0.087104,0 -0.087104,0 h -2.351812 c -0.087104,0 -0.087104,0 -0.1742084,0 C 1.7126867,9.0854061 0.92874947,8.2143643 1.1900619,5.9496564 Z"
   id="path922"
   inkscape:connector-curvature="0"
   style="fill:#ff686b;stroke-width:0.87104148" />
	
<path
   style="fill:#ff686b;stroke-width:0.3565236"
   inkscape:connector-curvature="0"
   id="path946"
   d="m 20.944509,11.787736 -0.427828,0.42783 c 0,0 -0.03565,0.03565 -0.03565,0.03565 -0.07131,0.03565 -0.106958,0 -0.14261,-0.03565 -0.213914,-0.249567 -0.534785,-0.606092 -0.534785,-0.606092 0,0 -0.89131,-1.033918 -1.533052,-1.461747 L 17.914056,9.8981608 c -0.03565,-0.035653 -0.07131,-0.071306 -0.07131,-0.1069565 0,-0.035653 0.03565,-0.1069576 0.07131,-0.1069576 l 0.356525,-0.2495663 c 0.641742,-0.4278282 1.568703,-1.4973992 1.568703,-1.4973992 0,0 0.285219,-0.3208713 0.499134,-0.5347852 0.07131,-0.071305 0.14261,-0.071305 0.213913,0 0,0 0,0 0,0 l 0.392176,0.4634804 c 0.03565,0.071305 0.03565,0.1426095 0,0.1782619 L 19.34015,9.6842467 c -0.03565,0.071307 -0.03565,0.1426098 0,0.2139141 l 1.604357,1.7113132 c 0.07131,0.03565 0.07131,0.14261 0,0.178262 z" /><path
   style="fill:#ff686b;stroke-width:0.3565236"
   inkscape:connector-curvature="0"
   id="path948"
   d="m 24.58105,11.53817 c -0.106956,0.998266 -0.926962,1.746966 -1.925227,1.782618 -0.713048,0.03565 -1.247834,-0.178262 -1.711314,-0.499133 0,0 0,0 -0.03565,-0.03565 0,0 0,-0.03565 0,-0.07131 0,0 0,-0.03565 0,-0.03565 l 0.534785,-0.570438 c 0.07131,0 0.106957,0 0.142609,0.03565 0.28522,0.178262 0.641743,0.285219 0.962613,0.285219 0.641743,0 1.176529,-0.534786 1.176529,-1.176529 0,-0.249566 -0.07131,-0.499132 -0.213915,-0.677394 -0.07131,-0.07131 -0.178262,-0.249566 -0.285218,-0.356525 -0.03565,0 -0.03565,-0.07131 0,-0.07131 0,0 0.03565,0 0.03565,0 h 0.962614 c 0,0 0.03565,0 0.03565,0 0.106956,0.07131 0.427828,0.42783 0.320871,1.390444 z" /><path
   style="fill:#ff686b;stroke-width:0.3565236"
   inkscape:connector-curvature="0"
   id="path950"
   d="M 24.58105,8.2225 C 24.474094,7.2242341 23.654088,6.4755346 22.655823,6.4398822 21.942775,6.4042302 21.407989,6.618144 20.944509,6.9390153 c -0.03565,0 -0.03565,0.035652 -0.03565,0.071305 0,0 0,0.035652 0,0.035652 l 0.534785,0.5704376 c 0.03565,0.035652 0.07131,0.035652 0.07131,0 0.285218,-0.1782617 0.641742,-0.2852188 0.998265,-0.2852188 0.641743,0 1.176528,0.5347853 1.176528,1.1765279 0,0.2495663 -0.07131,0.4991326 -0.213914,0.6773945 -0.07131,0.071306 -0.178262,0.2495674 -0.285218,0.3565239 0,0 0,0.035653 0.03565,0.071307 0,0 0,0 0,0 0,0 0.03565,0 0.03565,0 h 0.962614 c 0.03565,0 0.03565,0 0.07131,0 0.07131,-0.1069566 0.392176,-0.4634805 0.285218,-1.3904424 z" /><circle
   style="fill:#ff686b;fill-opacity:1;stroke:none;stroke-width:0.53485;stroke-opacity:1"
   id="path954"
   cx="6.3564734"
   cy="6.5003982"
   r="0.71962005" /></g>
</svg>